# Low-Poly Block-Schneemann
# 3 gestapelte Würfel + 1 Pyramiden-Nase

# --- VERTICES ---
# Basis (Y: 0.0 bis 1.0)
v -0.5 0.0 -0.5
v 0.5 0.0 -0.5
v 0.5 0.0 0.5
v -0.5 0.0 0.5
v -0.5 1.0 -0.5
v 0.5 1.0 -0.5
v 0.5 1.0 0.5
v -0.5 1.0 0.5

# Bauch (Y: 1.0 bis 1.6)
v -0.3 1.0 -0.3
v 0.3 1.0 -0.3
v 0.3 1.0 0.3
v -0.3 1.0 0.3
v -0.3 1.6 -0.3
v 0.3 1.6 -0.3
v 0.3 1.6 0.3
v -0.3 1.6 0.3

# Kopf (Y: 1.6 bis 2.0)
v -0.2 1.6 -0.2
v 0.2 1.6 -0.2
v 0.2 1.6 0.2
v -0.2 1.6 0.2
v -0.2 2.0 -0.2
v 0.2 2.0 -0.2
v 0.2 2.0 0.2
v -0.2 2.0 0.2

# Nase (Karotte, zeigt nach +Z)
v -0.05 1.75 0.2
v 0.05 1.75 0.2
v 0.05 1.85 0.2
v -0.05 1.85 0.2
v 0.0 1.8 0.5

# --- FACES ---
# Wir nutzen Quads (4 Punkte), unser ObjLoader trianguliert das automatisch!

# Basis (Punkte 1-8)
f 1 2 3 4
f 8 7 6 5
f 4 3 7 8
f 5 6 2 1
f 1 4 8 5
f 3 2 6 7

# Bauch (Punkte 9-16)
f 9 10 11 12
f 16 15 14 13
f 12 11 15 16
f 13 14 10 9
f 9 12 16 13
f 11 10 14 15

# Kopf (Punkte 17-24)
f 17 18 19 20
f 24 23 22 21
f 20 19 23 24
f 21 22 18 17
f 17 20 24 21
f 19 18 22 23

# Nase (Punkte 25-29, 1 Quad als Basis, 4 Dreiecke als Spitze)
f 28 27 26 25
f 25 26 29
f 26 27 29
f 27 28 29
f 28 25 29