# Low-Poly Auto mit 8-eckigen runden Rädern
mtllib car.mtl

# --- KAROSSERIE (1-8) ---
v -1.0 0.5  2.0
v  1.0 0.5  2.0
v  1.0 1.5  2.0
v -1.0 1.5  2.0
v -1.0 0.5 -2.0
v  1.0 0.5 -2.0
v  1.0 1.5 -2.0
v -1.0 1.5 -2.0

usemtl BodyPaint
f 1 2 3
f 1 3 4
f 6 5 8
f 6 8 7
f 4 3 7
f 4 7 8
f 5 6 2
f 5 2 1
f 2 6 7
f 2 7 3
f 5 1 4
f 5 4 8

# --- FAHRGASTZELLE (9-16) ---
v -0.8 1.5  1.0
v  0.8 1.5  1.0
v  0.8 2.2  1.0
v -0.8 2.2  1.0
v -0.8 1.5 -1.0
v  0.8 1.5 -1.0
v  0.8 2.2 -1.0
v -0.8 2.2 -1.0

usemtl BodyPaint
f 12 11 15
f 12 15 16

usemtl WindowGlass
f 9 10 11
f 9 11 12
f 14 13 16
f 14 16 15
f 10 14 15
f 10 15 11
f 13 9 12
f 13 12 16

# --- RÄDER & FELGEN ---
# Da eine komplette Kreis-Triangulierung per Hand hunderte Zeilen
# fressen würde, definieren wir hier sehr einfache, aber deutlich
# runde, 8-eckige Räder.

# Rad Vorne Links (Rubber)
v 0.9 0.8 1.5
v 0.9 0.68 1.78
v 0.9 0.4 1.9
v 0.9 0.12 1.78
v 0.9 0.0 1.5
v 0.9 0.12 1.22
v 0.9 0.4 1.1
v 0.9 0.68 1.22
v 1.3 0.8 1.5
v 1.3 0.68 1.78
v 1.3 0.4 1.9
v 1.3 0.12 1.78
v 1.3 0.0 1.5
v 1.3 0.12 1.22
v 1.3 0.4 1.1
v 1.3 0.68 1.22

# Radkappe Vorne Links (Metal)
v 1.3 0.6 1.5
v 1.3 0.54 1.64
v 1.3 0.4 1.7
v 1.3 0.26 1.64
v 1.3 0.2 1.5
v 1.3 0.26 1.36
v 1.3 0.4 1.3
v 1.3 0.54 1.36
v 1.35 0.6 1.5
v 1.35 0.54 1.64
v 1.35 0.4 1.7
v 1.35 0.26 1.64
v 1.35 0.2 1.5
v 1.35 0.26 1.36
v 1.35 0.4 1.3
v 1.35 0.54 1.36

# Rad Vorne Rechts (Rubber)
v -0.9 0.8 1.5
v -0.9 0.68 1.78
v -0.9 0.4 1.9
v -0.9 0.12 1.78
v -0.9 0.0 1.5
v -0.9 0.12 1.22
v -0.9 0.4 1.1
v -0.9 0.68 1.22
v -1.3 0.8 1.5
v -1.3 0.68 1.78
v -1.3 0.4 1.9
v -1.3 0.12 1.78
v -1.3 0.0 1.5
v -1.3 0.12 1.22
v -1.3 0.4 1.1
v -1.3 0.68 1.22

# Radkappe Vorne Rechts (Metal)
v -1.3 0.6 1.5
v -1.3 0.54 1.64
v -1.3 0.4 1.7
v -1.3 0.26 1.64
v -1.3 0.2 1.5
v -1.3 0.26 1.36
v -1.3 0.4 1.3
v -1.3 0.54 1.36
v -1.35 0.6 1.5
v -1.35 0.54 1.64
v -1.35 0.4 1.7
v -1.35 0.26 1.64
v -1.35 0.2 1.5
v -1.35 0.26 1.36
v -1.35 0.4 1.3
v -1.35 0.54 1.36

# Rad Hinten Links (Rubber)
v 0.9 0.8 -1.5
v 0.9 0.68 -1.22
v 0.9 0.4 -1.1
v 0.9 0.12 -1.22
v 0.9 0.0 -1.5
v 0.9 0.12 -1.78
v 0.9 0.4 -1.9
v 0.9 0.68 -1.78
v 1.3 0.8 -1.5
v 1.3 0.68 -1.22
v 1.3 0.4 -1.1
v 1.3 0.12 -1.22
v 1.3 0.0 -1.5
v 1.3 0.12 -1.78
v 1.3 0.4 -1.9
v 1.3 0.68 -1.78

# Radkappe Hinten Links (Metal)
v 1.3 0.6 -1.5
v 1.3 0.54 -1.36
v 1.3 0.4 -1.3
v 1.3 0.26 -1.36
v 1.3 0.2 -1.5
v 1.3 0.26 -1.64
v 1.3 0.4 -1.7
v 1.3 0.54 -1.64
v 1.35 0.6 -1.5
v 1.35 0.54 -1.36
v 1.35 0.4 -1.3
v 1.35 0.26 -1.36
v 1.35 0.2 -1.5
v 1.35 0.26 -1.64
v 1.35 0.4 -1.7
v 1.35 0.54 -1.64

# Rad Hinten Rechts (Rubber)
v -0.9 0.8 -1.5
v -0.9 0.68 -1.22
v -0.9 0.4 -1.1
v -0.9 0.12 -1.22
v -0.9 0.0 -1.5
v -0.9 0.12 -1.78
v -0.9 0.4 -1.9
v -0.9 0.68 -1.78
v -1.3 0.8 -1.5
v -1.3 0.68 -1.22
v -1.3 0.4 -1.1
v -1.3 0.12 -1.22
v -1.3 0.0 -1.5
v -1.3 0.12 -1.78
v -1.3 0.4 -1.9
v -1.3 0.68 -1.78

# Radkappe Hinten Rechts (Metal)
v -1.3 0.6 -1.5
v -1.3 0.54 -1.36
v -1.3 0.4 -1.3
v -1.3 0.26 -1.36
v -1.3 0.2 -1.5
v -1.3 0.26 -1.64
v -1.3 0.4 -1.7
v -1.3 0.54 -1.64
v -1.35 0.6 -1.5
v -1.35 0.54 -1.36
v -1.35 0.4 -1.3
v -1.35 0.26 -1.36
v -1.35 0.2 -1.5
v -1.35 0.26 -1.64
v -1.35 0.4 -1.7
v -1.35 0.54 -1.64

usemtl WheelRubber
# Mantel VL
f 17 18 26
f 17 26 25
f 18 19 27
f 18 27 26
f 19 20 28
f 19 28 27
f 20 21 29
f 20 29 28
f 21 22 30
f 21 30 29
f 22 23 31
f 22 31 30
f 23 24 32
f 23 32 31
f 24 17 25
f 24 25 32
# Kappen VL
f 17 22 21
f 17 21 20
f 17 20 19
f 17 19 18
f 17 24 23
f 17 23 22
f 25 26 27
f 25 27 28
f 25 28 29
f 25 29 30
f 25 30 31
f 25 31 32

# Mantel VR
f 49 50 58
f 49 58 57
f 50 51 59
f 50 59 58
f 51 52 60
f 51 60 59
f 52 53 61
f 52 61 60
f 53 54 62
f 53 62 61
f 54 55 63
f 54 63 62
f 55 56 64
f 55 64 63
f 56 49 57
f 56 57 64
# Kappen VR
f 49 54 53
f 49 53 52
f 49 52 51
f 49 51 50
f 49 56 55
f 49 55 54
f 57 58 59
f 57 59 60
f 57 60 61
f 57 61 62
f 57 62 63
f 57 63 64

# Mantel HL
f 81 82 90
f 81 90 89
f 82 83 91
f 82 91 90
f 83 84 92
f 83 92 91
f 84 85 93
f 84 93 92
f 85 86 94
f 85 94 93
f 86 87 95
f 86 95 94
f 87 88 96
f 87 96 95
f 88 81 89
f 88 89 96
# Kappen HL
f 81 86 85
f 81 85 84
f 81 84 83
f 81 83 82
f 81 88 87
f 81 87 86
f 89 90 91
f 89 91 92
f 89 92 93
f 89 93 94
f 89 94 95
f 89 95 96

# Mantel HR
f 113 114 122
f 113 122 121
f 114 115 123
f 114 123 122
f 115 116 124
f 115 124 123
f 116 117 125
f 116 125 124
f 117 118 126
f 117 126 125
f 118 119 127
f 118 127 126
f 119 120 128
f 119 128 127
f 120 113 121
f 120 121 128
# Kappen HR
f 113 118 117
f 113 117 116
f 113 116 115
f 113 115 114
f 113 120 119
f 113 119 118
f 121 122 123
f 121 123 124
f 121 124 125
f 121 125 126
f 121 126 127
f 121 127 128

usemtl RimMetal
# Felge VL Mantel
f 33 34 42
f 33 42 41
f 34 35 43
f 34 43 42
f 35 36 44
f 35 44 43
f 36 37 45
f 36 45 44
f 37 38 46
f 37 46 45
f 38 39 47
f 38 47 46
f 39 40 48
f 39 48 47
f 40 33 41
f 40 41 48
# Felge VL Deckel
f 41 42 43
f 41 43 44
f 41 44 45
f 41 45 46
f 41 46 47
f 41 47 48

# Felge VR Mantel
f 65 66 74
f 65 74 73
f 66 67 75
f 66 75 74
f 67 68 76
f 67 76 75
f 68 69 77
f 68 77 76
f 69 70 78
f 69 78 77
f 70 71 79
f 70 79 78
f 71 72 80
f 71 80 79
f 72 65 73
f 72 73 80
# Felge VR Deckel
f 73 74 75
f 73 75 76
f 73 76 77
f 73 77 78
f 73 78 79
f 73 79 80

# Felge HL Mantel
f 97 98 106
f 97 106 105
f 98 99 107
f 98 107 106
f 99 100 108
f 99 108 107
f 100 101 109
f 100 109 108
f 101 102 110
f 101 110 109
f 102 103 111
f 102 111 110
f 103 104 112
f 103 112 111
f 104 97 105
f 104 105 112
# Felge HL Deckel
f 105 106 107
f 105 107 108
f 105 108 109
f 105 109 110
f 105 110 111
f 105 111 112

# Felge HR Mantel
f 129 130 138
f 129 138 137
f 130 131 139
f 130 139 138
f 131 132 140
f 131 140 139
f 132 133 141
f 132 141 140
f 133 134 142
f 133 142 141
f 134 135 143
f 134 143 142
f 135 136 144
f 135 144 143
f 136 129 137
f 136 137 144
# Felge HR Deckel
f 137 138 139
f 137 139 140
f 137 140 141
f 137 141 142
f 137 142 143
f 137 143 144